<svg xmlns="http://www.w3.org/2000/svg" xmlns:xlink="http://www.w3.org/1999/xlink"><defs>
        <clipPath id="a">
            <rect rx="0" width="23" height="23" transform="translate(.5 .5)" fill="#fff" fill-opacity="0"/>
        </clipPath>
    
        <clipPath id="a">
            <rect rx="0" width="23" height="23" transform="translate(.5 .5)" fill="#fff" fill-opacity="0"/>
        </clipPath>
    
        <clipPath id="a">
            <rect rx="0" width="23" height="23" transform="translate(.5 .5)" fill="#fff" fill-opacity="0"/>
        </clipPath>
    
        <clipPath id="a">
            <rect rx="0" width="23" height="23" transform="translate(.5 .5)" fill="#fff" fill-opacity="0"/>
        </clipPath>
    </defs><symbol id="close" viewBox="0 0 60 60"><g fill="none">
    <circle cx="30" cy="30" r="30" fill="#1F1E1E"/>
    <path d="M36 24 24 36M24 24l12 12" stroke="#fff" stroke-width="2" stroke-linecap="round" stroke-linejoin="round"/>
</g></symbol><symbol id="dignity" viewBox="0 0 80 35.245"><g fill="none">
    <path d="M57.63 8.42V5.74h2.19V0h2.82v5.74h2.12v2.72h-2.12v9.52c0 1.57.64 2.44 1.93 2.62.24.04.48.07.73.07h.46l.63 2.82H65.2c-2.72-.02-4.39-1.04-5.01-3.06-.23-.75-.34-1.68-.34-2.78l-.03-9.23h-2.19ZM0 23.49V.26h2.88v23.23H0Zm4.54 0v-2.86c2.26 0 3.77-.35 4.55-1.06.66-.62.99-1.49.99-2.62V6.8q0-1.19-.56-2-.8-1.17-2.79-1.52-.93-.17-2.19-.17V.26q4.98 0 7.06 2.46.39.45.67.99c.49.89.73 1.91.73 3.09v10.15c0 4.16-2.53 6.34-7.6 6.54h-.86ZM15.82 3.08c0-.69.32-1.17.96-1.46q.34-.13.67-.13c.66 0 1.15.31 1.46.93q.13.33.13.66c0 .66-.31 1.15-.93 1.46-.22.09-.44.13-.66.13-.69 0-1.19-.31-1.49-.93a1.74 1.74 0 0 1-.14-.66Zm36.5 0c0-.69.32-1.17.96-1.46.23-.09.45-.13.67-.13.66 0 1.15.31 1.46.93.09.22.13.44.13.66 0 .66-.31 1.15-.93 1.46-.22.09-.44.13-.66.13-.69 0-1.19-.31-1.5-.93-.08-.22-.13-.44-.13-.66ZM21.4 29.63l.69-2.59h6.24c1.24-.05 2.15-.53 2.72-1.46.18-.31.27-.59.27-.83v-2.39c-.91.64-1.82.98-2.72 1.03v-2.56c.97 0 1.74-.41 2.32-1.22.27-.38.4-.76.4-1.13v-8.13c0-.84-.47-1.51-1.4-1.99-.44-.22-.88-.34-1.32-.34V5.4q.81 0 1.52.28.59.23 1.1.65c.04.02.08.05.1.07v-1h2.69v19.35c0 .95-.44 1.93-1.3 2.95-1.08 1.26-2.42 1.9-4.01 1.93h-7.3Zm.33-11.12v-8.4q.08-1.51 1.39-2.95c1.09-1.15 2.42-1.73 4.02-1.76v2.62c-1.09 0-1.91.47-2.46 1.4-.2.33-.3.63-.3.89v8.17c0 .66.35 1.25 1.03 1.76q.31.21.65.34.5.19 1.08.19v2.62c-2.04-.02-3.59-.89-4.65-2.59-.51-.82-.76-1.58-.76-2.29Zm14.83 4.98V10.38c0-1.06.48-2.1 1.43-3.12q.79-.8 1.75-1.25 1.17-.54 2.59-.54v2.75q-.95 0-1.65.42-.54.33-.93.91c-.25.38-.37.76-.37 1.16v12.78h-2.82Zm7.23-15.27V5.47c2.06 0 3.67.83 4.82 2.49.62.86.92 1.67.92 2.42v13.11h-2.82V10.71c0-.68-.34-1.29-1.02-1.82-.56-.44-1.19-.67-1.9-.67Zm22.93-2.68h2.96l5.04 14.03-3.42 10.22h-2.82l3.25-10.25-5.01-14Zm7.34 7.69 3.02-7.69H80l-4.42 11.58h-.3l-1.22-3.89ZM16.05 23.49V6h2.79v17.49h-2.79Zm36.5 0V6h2.79v17.49h-2.79ZM52.4 24.9l-.01 10.27h1.26V24.9H52.4Zm10.21 2.67c-.81.43-1.21 1.08-1.21 1.96 0 .2.02.38.06.56.16.59.6 1.03 1.34 1.32.2.07.53.15.98.26.43.1.74.19.93.25.77.23 1.15.54 1.15.92 0 .3-.11.57-.32.79-.3.31-.67.46-1.12.46v1.15c.56 0 1.06-.13 1.5-.39.74-.45 1.12-1.13 1.12-2.06 0-.34-.08-.65-.22-.92-.28-.51-.75-.84-1.41-.97-1.06-.25-1.77-.46-2.13-.61-.49-.19-.73-.45-.73-.76q0-.07.01-.14.04-.23.18-.44c.24-.36.58-.55 1.03-.55v-1.13c-.39 0-.77.1-1.16.3Zm1.8-.3v1.15c.14 0 .3.03.48.1q.53.19.74.57.13.24.13.55l1.14-.19c0-.44-.15-.85-.47-1.25-.52-.62-1.19-.93-2.02-.93ZM35.3 33.02c0 .51.2.98.6 1.41q.21.23.48.39.57.35 1.36.35v-1.16q-.51 0-.83-.25-.17-.13-.29-.33a.934.934 0 0 1-.11-.41v-3.53q0-.11.03-.22.08-.33.45-.58.11-.07.23-.12.24-.09.52-.09v-1.17q-.81 0-1.38.37-.42.27-.71.72-.35.54-.35 1.06v3.56Zm3.09-4.53q.4 0 .66.19.21.15.33.42c.07.15.11.31.12.48v.35l1.13-.44q0-.48-.18-.88-.22-.48-.69-.85-.31-.23-.66-.34-.34-.11-.71-.11v1.18Zm3.33 4.53V29.36q.03-.64.61-1.26.33-.34.73-.54.52-.25 1.16-.25v1.18c-.58 0-.97.24-1.2.71-.06.15-.1.29-.1.44v3.19q0 .17.05.33.11.33.45.58c.23.18.5.27.8.27v1.17q-.73 0-1.28-.31-.5-.28-.86-.81c-.24-.36-.36-.71-.36-1.04Zm3.12 2.16v-1.17q.38 0 .66-.18.27-.17.44-.52c.08-.16.12-.31.12-.45v-3.22q0-.28-.11-.5-.12-.26-.4-.45c-.21-.13-.45-.2-.72-.2v-1.18q.69 0 1.22.3.49.27.84.79c.24.36.36.7.36 1.03v3.71q-.05.65-.61 1.26-.31.34-.7.53-.49.24-1.1.25Zm9.97-2.16v-3.6c.01-.45.23-.89.64-1.32.5-.52 1.11-.78 1.83-.79v1.15c-.46 0-.83.2-1.09.61-.1.17-.16.33-.16.48v.99h3.25v-.99q0-.26-.1-.47-.16-.31-.56-.49c-.21-.1-.42-.14-.63-.14v-1.14q.4 0 .76.11.55.17 1.03.6.51.5.63 1.07.03.16.04.31v2.31h-4.42v1.31c0 .27.16.52.47.75.25.18.51.26.79.26v1.14c-.88 0-1.57-.36-2.07-1.08q-.41-.56-.41-1.07Zm-6.57-3.59v3.59c0 .32.11.66.34 1.03.48.74 1.15 1.12 2.01 1.12h1.1v-1.18h-1.12c-.21 0-.42-.07-.62-.2-.35-.22-.52-.49-.52-.8v-3.48c0-.15.05-.3.16-.47q.23-.33.54-.46.2-.08.43-.08h1.13v-1.17h-1.15c-.61 0-1.14.22-1.59.65-.47.45-.7.93-.71 1.45Zm-9.85 5.75q.4.01.76-.11.57-.18 1.04-.67.47-.5.58-1.07.03-.18.03-.35l-1.13-.43v.29l-.01.03q-.04.44-.27.71-.2.24-.55.35-.08.03-.17.05-.13.03-.28.03v1.17Zm24.09-2.29-1.15.22c0 .38.12.76.36 1.11.47.68 1.17 1.02 2.11 1.02v-1.15c-.2-.01-.42-.06-.64-.17-.46-.25-.68-.6-.68-1.03Zm-4.49 2.28v-1.15c.58 0 1.02-.25 1.31-.75q.09-.16.13-.31l1.03.38c-.17.67-.57 1.17-1.19 1.51-.4.21-.82.32-1.28.32Z" fill="#111" fill-rule="evenodd"/>
</g></symbol><symbol id="home" viewBox="0 0 18 20.024"><g fill="none">
    <path d="m11 .76 6 5.26c.31.28.56.63.74 1.02.17.38.26.8.26 1.23v8.75c0 .79-.32 1.56-.88 2.12-.57.56-1.33.88-2.12.88H3c-.8 0-1.56-.32-2.13-.88-.56-.56-.87-1.33-.87-2.12V8.28a2.926 2.926 0 0 1 1-2.26L7 .76C7.55.27 8.26 0 9 0c.73 0 1.45.27 2 .76ZM7 18.02h4v-5a1 1 0 0 0-.3-.71.984.984 0 0 0-.7-.29H8a.99.99 0 0 0-1 1v5Z" fill="#BC3324" fill-rule="evenodd"/>
</g></symbol><symbol id="insta" viewBox="0 0 24 24"><g fill="none">
    
    <g clip-path="url(#a)" fill="#FFF">
        <path d="M12 7c-1.33 0-2.6.52-3.54 1.46S7 10.67 7 12a5.003 5.003 0 0 0 5 5c1.32 0 2.59-.53 3.53-1.47S17 13.32 17 12a5.003 5.003 0 0 0-5-5Zm0 8.24c-.87 0-1.69-.34-2.3-.95-.61-.61-.95-1.43-.95-2.3 0-.86.34-1.68.95-2.29.61-.61 1.43-.95 2.3-.95.86 0 1.68.34 2.29.95.61.61.95 1.43.95 2.29 0 .87-.34 1.69-.95 2.3-.61.61-1.43.95-2.29.95Z"/>
        <path d="M18 7c0 .55-.45 1-1 1-.56 0-1-.45-1-1 0-.56.44-1 1-1 .55 0 1 .44 1 1Z" fill-rule="evenodd"/>
        <path d="M21.47 5.44c-.26-.66-.65-1.27-1.16-1.77-.5-.5-1.11-.89-1.77-1.15-.78-.29-1.6-.45-2.43-.46C15.04 2.01 14.7 2 11.99 2s-3.06 0-4.12.06c-.83.01-1.65.17-2.42.46-.67.26-1.27.65-1.77 1.15-.51.5-.9 1.11-1.16 1.77-.29.78-.45 1.59-.46 2.42C2.01 8.93 2 9.27 2 11.98c0 2.7 0 3.05.06 4.11.01.83.17 1.65.46 2.43.26.66.65 1.26 1.16 1.76.5.51 1.1.9 1.77 1.15.77.31 1.59.48 2.42.5 1.07.05 1.41.07 4.13.07 2.71 0 3.05 0 4.12-.07.83-.01 1.65-.17 2.42-.46.67-.26 1.27-.65 1.77-1.15.51-.51.9-1.11 1.16-1.77.29-.78.45-1.6.46-2.42.05-1.07.07-1.41.07-4.12s0-3.05-.07-4.11c-.01-.84-.17-1.67-.46-2.46Zm-1.36 10.57c0 .64-.12 1.27-.34 1.87-.17.43-.42.82-.75 1.15-.33.33-.72.58-1.15.75-.6.22-1.23.34-1.86.34-1.05.05-1.35.06-4.06.06-2.7 0-2.98 0-4.06-.06-.63 0-1.26-.12-1.85-.34-.43-.17-.83-.42-1.16-.75-.33-.33-.58-.72-.75-1.15-.22-.59-.33-1.22-.34-1.85-.05-1.05-.06-1.35-.06-4.05 0-2.7 0-2.98.06-4.05 0-.64.12-1.28.34-1.88.34-.87 1.03-1.56 1.91-1.89.59-.22 1.22-.34 1.85-.35 1.06-.05 1.36-.06 4.06-.06 2.71 0 2.99 0 4.06.06.63.01 1.26.13 1.86.35.43.16.82.42 1.15.74.32.33.58.72.75 1.15.22.6.33 1.22.34 1.86.05 1.05.06 1.35.06 4.05 0 2.7 0 2.99-.05 4.05h-.01Z"/>
    </g>
</g></symbol><symbol id="LENNI"><g fill="none">
    <path d="M485.389 317.073V0H0v325h647.345v-7.927H485.389ZM675.453 325h200.745v-7.927H713.443V159.935h126.765v-7.926H713.443V7.927H876V0H675.453v325ZM941.896 325V8.393c34.39 0 141.564 13.989 149.554 194.907V325h37.99V0h-37.99v143.615c-9.59-48.027-28.39-82.998-57.18-108.177C998.68 3.73 958.291 0 941.896 0h-37.99v325h37.99ZM1207.45 325V8.393c34.39 0 141.56 13.989 149.56 194.907V325H1395V0h-37.99v143.615c-9.6-48.027-28.4-82.998-57.19-108.177C1264.23 3.73 1223.84 0 1207.45 0h-37.99v325h37.99ZM1473 0h-37.99v325H1920V0h-447Z" fill="#1F1E1E"/>
</g></symbol><symbol id="link" viewBox="0 0 92 62"><g fill="none">
    <path d="M40 52.213a29.836 29.836 0 0 0 15.297 8.21 29.76 29.76 0 0 0 17.26-1.707 29.902 29.902 0 0 0 13.408-11.049A30.089 30.089 0 0 0 91 31a30.089 30.089 0 0 0-5.035-16.667 29.902 29.902 0 0 0-13.407-11.05 29.76 29.76 0 0 0-17.262-1.707A29.837 29.837 0 0 0 40 9.786" stroke="#1F1E1E" stroke-width="2" stroke-linecap="round"/>
    <path d="M5 31h60M58 24l7 7-7 7" stroke="#1F1E1E" stroke-width="2" stroke-linecap="round" stroke-linejoin="round"/>
</g></symbol><symbol id="location" viewBox="0 0 24 24"><g fill="none">
    
    <g clip-path="url(#a)">
        <circle cx="12" cy="12" r="9" fill="#BC3324"/>
    </g>
</g></symbol><symbol id="logo" viewBox="0 0 202 147"><g fill="none">
    <path fill="#1F1E1E" d="M0 0h147v147H0z"/>
    <path d="M39.96 72.43H26.63v-22.4h-.03v-.04h-4.69V73h18.05v-.57Zm3.97.57h18.11v-.57H48.61V61.28h10.5v-.59h-10.5V50.56h13.43v-.57H43.93V73Zm26.76-22.44V73h-4.68V49.99h4.68c6.47 0 10.96 4.19 12.38 10.33V49.99h4.69V73h-4.69v-8.55c-.66-12.81-9.5-13.89-12.38-13.89ZM97.38 73V50.56c2.88 0 11.72 1.08 12.38 13.89V73h4.69V49.99h-4.69v10.33c-1.42-6.14-5.91-10.33-12.38-10.33H92.7V73h4.68Zm26.69 0h-4.68V49.99h4.68V73Z" fill="#FFF" fill-rule="evenodd"/>
    <path fill="#BC3324" d="M81 92h121v42H81z"/>
    <path d="M132.64 103.09V124h4.26v-7.23h5.07l4.89 7.2h4.86l-5.16-7.65c3-.78 5.28-2.64 5.28-6.81 0-5.22-3.81-6.87-8.25-6.87-4.68 0-6.03 3.51-6.69 7.41v-6.96h-4.26ZM108.92 124h.54l2.94-8.55h8.55l3.33 8.55h4.47l-8.1-20.91h-4.53l-7.2 20.91Zm53.19 0-.03-20.4h-8.61v-.51h21.51v.51h-8.61V124h-4.26Zm-24.04-16.53c.81-2.94 2.91-4.14 4.77-4.29 4.47-.42 4.65 2.43 4.65 6.33 0 6.33-3.36 6.75-6.24 6.75h-4.35s-.12-4.14 1.17-8.79Zm-21.65-3.72 4.35 11.19h-8.19l3.84-11.19Z" fill="#FFF" fill-rule="evenodd"/>
</g></symbol><symbol id="logout" viewBox="0 0 24 24"><g fill="none">
    <clipPath id="a">
        <rect rx="0" width="23" height="23" transform="translate(.5 .5)" fill="#fff" fill-opacity="0"/>
    </clipPath>
    <g clip-path="url(#a)" stroke="#1F1E1E" stroke-width="2" stroke-linejoin="round" stroke-linecap="round">
        <path d="m10 17 5-5-5-5M15 12H3M15 3h4c.53 0 1.03.21 1.41.58.37.38.59.88.59 1.42v14c0 .53-.22 1.03-.59 1.41-.38.37-.88.59-1.41.59h-4"/>
    </g>
</g></symbol><symbol id="menu" viewBox="0 0 24 24"><g fill="none">
    
    <g clip-path="url(#a)" stroke="#1F1E1E" stroke-width="2" stroke-linejoin="round" stroke-linecap="round">
        <path d="M3 18h18M3 12h18M3 6h18"/>
    </g>
</g></symbol><symbol id="star" viewBox="0 0 20.027 19.124"><g fill="none">
    <path d="M19.99 7.23a1.009 1.009 0 0 0-.86-.67l-5.69-.83L10.89.56a.976.976 0 0 0-.37-.41.988.988 0 0 0-.53-.15c-.19 0-.37.05-.53.15-.16.1-.29.24-.37.41L6.54 5.72l-5.69.84a.99.99 0 0 0-.83 1.21c.05.18.14.34.27.47l4.13 4-1 5.68a.975.975 0 0 0 .4 1c.15.11.33.17.51.18.19.02.37-.02.54-.11l5.12-2.67 5.1 2.68c.14.08.3.12.46.12.21 0 .42-.07.59-.19.15-.11.27-.27.34-.44.08-.18.09-.37.06-.56l-1-5.68 4.13-4c.14-.12.25-.28.31-.46.05-.19.06-.38.01-.56Z" fill="#BC3324" fill-rule="evenodd"/>
</g></symbol><symbol id="user" viewBox="0 0 20.002 17"><g fill="none">
    <path d="M11.29 8.71c.54-.46.97-1.03 1.26-1.67C12.84 6.4 13 5.7 13 5a5.003 5.003 0 0 0-5-5C6.67 0 5.4.52 4.46 1.46a4.994 4.994 0 0 0-1.02 5.58c.29.64.72 1.21 1.26 1.67-1.4.64-2.59 1.66-3.43 2.95A8.026 8.026 0 0 0 0 16c0 .26.1.51.29.7A1 1 0 0 0 1 17c.26 0 .51-.11.7-.3.19-.19.3-.44.3-.7 0-1.6.63-3.12 1.75-4.25a6.025 6.025 0 0 1 8.49 0A6.035 6.035 0 0 1 14 16c0 .26.1.51.29.7a1 1 0 0 0 .71.3c.26 0 .51-.11.7-.3.19-.19.3-.44.3-.7a8.122 8.122 0 0 0-1.28-4.34 8.113 8.113 0 0 0-3.43-2.95ZM8 8c-.6 0-1.18-.18-1.67-.51-.5-.33-.88-.8-1.11-1.35-.22-.55-.28-1.15-.17-1.73.12-.58.4-1.12.82-1.54.42-.42.96-.7 1.54-.82.58-.11 1.19-.05 1.73.17.55.23 1.02.61 1.35 1.11.33.49.51 1.07.51 1.67 0 .79-.32 1.55-.88 2.12C9.55 7.68 8.79 8 8 8Zm11.7-2.38a.988.988 0 0 0-.32-.21.995.995 0 0 0-.38-.08c-.14 0-.27.03-.39.08s-.23.12-.32.21l-2 2-.63-.62a.995.995 0 0 0-.7-.3c-.14 0-.27.03-.39.08s-.23.12-.32.22c-.19.18-.3.44-.3.7 0 .26.11.52.3.7l1.33 1.35c.19.18.45.29.71.29.26 0 .52-.11.71-.29l2.66-2.67c.11-.1.19-.21.24-.33.06-.12.09-.26.1-.39 0-.14-.02-.27-.07-.4-.05-.12-.13-.24-.23-.34Z" fill="#1F1E1E"/>
</g></symbol><symbol id="vk" viewBox="0 0 24 24"><g fill="none">
    
    <rect rx="0" width="23" height="23" transform="translate(.5 .5)" fill="none"/>
    <g clip-path="url(#a)" fill="#FFF">
        <path d="M5.71 2c-.99 0-1.93.39-2.62 1.09C2.39 3.78 2 4.72 2 5.71v12.57c0 .99.39 1.93 1.09 2.62.69.7 1.63 1.09 2.62 1.1h12.57c.99-.01 1.93-.4 2.62-1.1.7-.69 1.09-1.63 1.1-2.62V5.71c-.01-.99-.4-1.93-1.1-2.62-.69-.7-1.63-1.09-2.62-1.09H5.71Zm0 1.81h12.57c1.06 0 1.9.84 1.9 1.9v12.57c0 1.06-.84 1.9-1.9 1.9H5.71c-.25 0-.5-.05-.73-.14-.23-.1-.44-.24-.62-.41-.17-.18-.31-.39-.41-.62-.09-.23-.14-.48-.14-.73V5.71c0-1.06.84-1.9 1.9-1.9Z"/>
        <path d="M17.72 9.4c.08-.23 0-.4-.4-.4h-1.31c-.33 0-.49.14-.57.31 0 0-.67 1.37-1.61 2.26-.31.26-.45.34-.62.34-.08 0-.21-.08-.21-.32V9.4c0-.28-.09-.4-.37-.4h-2.06c-.21 0-.33.13-.33.25 0 .27.47.33.52 1.08v1.62c0 .36-.08.43-.25.43-.44 0-1.52-1.38-2.17-2.96-.12-.3-.25-.42-.58-.42H6.45c-.38 0-.45.14-.45.31 0 .29.44 1.74 2.07 3.66 1.08 1.31 2.61 2.03 4 2.03.84 0 .94-.16.94-.43v-1c0-.31.08-.37.34-.37.2 0 .53.08 1.31.71.89.75 1.04 1.09 1.54 1.09h1.31c.37 0 .56-.16.45-.47-.11-.31-.54-.77-1.1-1.3-.31-.3-.77-.63-.91-.8-.19-.21-.14-.3 0-.49 0 0 1.6-1.89 1.77-2.54Z" fill-rule="evenodd"/>
    </g>
</g></symbol></svg>