<svg viewBox="0 0 24 24" fill="none" xmlns="http://www.w3.org/2000/svg" xmlns:xlink="http://www.w3.org/1999/xlink">
	<defs>
		<clipPath id="clip789_1281">
			<rect id="handshake" rx="0.000000" width="23.000000" height="23.000000" transform="translate(0.500000 0.500000)" fill="white" fill-opacity="0"/>
		</clipPath>
	</defs>
	<g clip-path="url(#clip789_1281)">
		<path id="Vector" d="M16.48 10.41C16.09 10.79 15.44 10.79 15.05 10.41L10.58 5.95L3.53 12.99L2.87 12.35C2.3 11.79 1.99 11.03 1.99 10.24C1.99 9.44 2.3 8.68 2.87 8.12L7.11 3.87C7.67 3.31 8.43 3 9.23 3C10.02 3 10.78 3.31 11.35 3.87L16.48 9C16.87 9.38 16.87 10.01 16.48 10.41ZM17.18 8.29C17.95 9.06 17.95 10.33 17.18 11.12C15.91 12.38 14.57 11.33 14.35 11.12L10.59 7.35L5.02 12.92C4.92 13.02 4.85 13.13 4.8 13.25C4.75 13.37 4.72 13.5 4.72 13.63C4.72 13.76 4.75 13.89 4.8 14.01C4.85 14.13 4.92 14.24 5.02 14.33C5.41 14.72 6.04 14.72 6.44 14.33L11.06 9.71L11.77 10.42L7.15 15.04C7.05 15.14 6.98 15.25 6.93 15.37C6.88 15.49 6.85 15.62 6.85 15.75C6.85 15.88 6.88 16.01 6.93 16.13C6.98 16.25 7.05 16.36 7.15 16.45C7.54 16.84 8.17 16.84 8.57 16.45L13.19 11.83L13.9 12.54L9.28 17.16C9.18 17.26 9.11 17.37 9.06 17.49C9.01 17.61 8.98 17.74 8.98 17.87C8.98 18 9.01 18.13 9.06 18.25C9.11 18.37 9.18 18.48 9.28 18.58C9.37 18.67 9.48 18.74 9.6 18.79C9.72 18.84 9.85 18.87 9.98 18.87C10.11 18.87 10.24 18.84 10.36 18.79C10.48 18.74 10.59 18.67 10.69 18.58L15.31 13.96L16.02 14.66L11.4 19.29C11.3 19.38 11.23 19.49 11.18 19.61C11.13 19.73 11.1 19.86 11.1 19.99C11.1 20.12 11.13 20.25 11.18 20.37C11.23 20.49 11.3 20.6 11.4 20.7C11.58 20.88 11.84 20.99 12.1 20.99C12.23 20.99 12.36 20.96 12.48 20.91C12.6 20.86 12.71 20.79 12.81 20.7L21.13 12.35C21.69 11.79 22 11.03 22 10.24C22 9.44 21.69 8.68 21.13 8.12L16.89 3.87C16.33 3.32 15.59 3.01 14.81 3C14.03 2.99 13.27 3.28 12.71 3.81L17.18 8.29Z" fill="#BC3324" fill-opacity="1.000000" fill-rule="nonzero"/>
	</g>
</svg>
