<svg viewBox="0 0 24 24" fill="none" xmlns="http://www.w3.org/2000/svg" xmlns:xlink="http://www.w3.org/1999/xlink">
	<defs>
		<clipPath id="clip392_2007">
			<rect id="insta" rx="0.000000" width="23.000000" height="23.000000" transform="translate(0.500000 0.500000)" fill="white" fill-opacity="0"/>
		</clipPath>
	</defs>
	<g clip-path="url(#clip392_2007)">
		<path id="Vector" d="M12 7C10.67 7 9.4 7.52 8.46 8.46C7.52 9.4 7 10.67 7 12C7 13.32 7.52 14.59 8.46 15.53C9.4 16.47 10.67 17 12 17C13.32 17 14.59 16.47 15.53 15.53C16.47 14.59 17 13.32 17 12C17 10.67 16.47 9.4 15.53 8.46C14.59 7.52 13.32 7 12 7ZM12 15.24C11.13 15.24 10.31 14.9 9.7 14.29C9.09 13.68 8.75 12.86 8.75 11.99C8.75 11.13 9.09 10.31 9.7 9.7C10.31 9.09 11.13 8.75 12 8.75C12.86 8.75 13.68 9.09 14.29 9.7C14.9 10.31 15.24 11.13 15.24 11.99C15.24 12.86 14.9 13.68 14.29 14.29C13.68 14.9 12.86 15.24 12 15.24Z" fill="#FFFFFF" fill-opacity="1.000000" fill-rule="nonzero"/>
		<path id="Vector" d="M18 7C18 7.55 17.55 8 17 8C16.44 8 16 7.55 16 7C16 6.44 16.44 6 17 6C17.55 6 18 6.44 18 7Z" fill="#FFFFFF" fill-opacity="1.000000" fill-rule="evenodd"/>
		<path id="Vector" d="M21.47 5.44C21.21 4.78 20.82 4.17 20.31 3.67C19.81 3.17 19.2 2.78 18.54 2.52C17.76 2.23 16.94 2.07 16.11 2.06C15.04 2.01 14.7 2 11.99 2C9.28 2 8.93 2 7.87 2.06C7.04 2.07 6.22 2.23 5.45 2.52C4.78 2.78 4.18 3.17 3.68 3.67C3.17 4.17 2.78 4.78 2.52 5.44C2.23 6.22 2.07 7.03 2.06 7.86C2.01 8.93 2 9.27 2 11.98C2 14.68 2 15.03 2.06 16.09C2.07 16.92 2.23 17.74 2.52 18.52C2.78 19.18 3.17 19.78 3.68 20.28C4.18 20.79 4.78 21.18 5.45 21.43C6.22 21.74 7.04 21.91 7.87 21.93C8.94 21.98 9.28 22 12 22C14.71 22 15.05 22 16.12 21.93C16.95 21.92 17.77 21.76 18.54 21.47C19.21 21.21 19.81 20.82 20.31 20.32C20.82 19.81 21.21 19.21 21.47 18.55C21.76 17.77 21.92 16.95 21.93 16.13C21.98 15.06 22 14.72 22 12.01C22 9.3 22 8.96 21.93 7.9C21.92 7.06 21.76 6.23 21.47 5.44ZM20.11 16.01C20.11 16.65 19.99 17.28 19.77 17.88C19.6 18.31 19.35 18.7 19.02 19.03C18.69 19.36 18.3 19.61 17.87 19.78C17.27 20 16.64 20.12 16.01 20.12C14.96 20.17 14.66 20.18 11.95 20.18C9.25 20.18 8.97 20.18 7.89 20.12C7.26 20.12 6.63 20 6.04 19.78C5.61 19.61 5.21 19.36 4.88 19.03C4.55 18.7 4.3 18.31 4.13 17.88C3.91 17.29 3.8 16.66 3.79 16.03C3.74 14.98 3.73 14.68 3.73 11.98C3.73 9.28 3.73 9 3.79 7.93C3.79 7.29 3.91 6.65 4.13 6.05C4.47 5.18 5.16 4.49 6.04 4.16C6.63 3.94 7.26 3.82 7.89 3.81C8.95 3.76 9.25 3.75 11.95 3.75C14.66 3.75 14.94 3.75 16.01 3.81C16.64 3.82 17.27 3.94 17.87 4.16C18.3 4.32 18.69 4.58 19.02 4.9C19.34 5.23 19.6 5.62 19.77 6.05C19.99 6.65 20.1 7.27 20.11 7.91C20.16 8.96 20.17 9.26 20.17 11.96C20.17 14.66 20.17 14.95 20.12 16.01L20.11 16.01L20.11 16.01Z" fill="#FFFFFF" fill-opacity="1.000000" fill-rule="nonzero"/>
	</g>
</svg>
