<svg viewBox="0 0 24 24" fill="none" xmlns="http://www.w3.org/2000/svg" xmlns:xlink="http://www.w3.org/1999/xlink">
	<defs>
		<clipPath id="clip392_2001">
			<rect id="la:vk" rx="0.000000" width="23.000000" height="23.000000" transform="translate(0.500000 0.500000)" fill="white" fill-opacity="0"/>
		</clipPath>
	</defs>
	<rect id="la:vk" rx="0.000000" width="23.000000" height="23.000000" transform="translate(0.500000 0.500000)" fill="#FFFFFF" fill-opacity="0"/>
	<g clip-path="url(#clip392_2001)">
		<path id="Vector" d="M5.71 2C4.72 2 3.78 2.39 3.09 3.09C2.39 3.78 2 4.72 2 5.71L2 18.28C2 19.27 2.39 20.21 3.09 20.9C3.78 21.6 4.72 21.99 5.71 22L18.28 22C19.27 21.99 20.21 21.6 20.9 20.9C21.6 20.21 21.99 19.27 22 18.28L22 5.71C21.99 4.72 21.6 3.78 20.9 3.09C20.21 2.39 19.27 2 18.28 2L5.71 2ZM5.71 3.81L18.28 3.81C19.34 3.81 20.18 4.65 20.18 5.71L20.18 18.28C20.18 19.34 19.34 20.18 18.28 20.18L5.71 20.18C5.46 20.18 5.21 20.13 4.98 20.04C4.75 19.94 4.54 19.8 4.36 19.63C4.19 19.45 4.05 19.24 3.95 19.01C3.86 18.78 3.81 18.53 3.81 18.28L3.81 5.71C3.81 4.65 4.65 3.81 5.71 3.81Z" fill="#FFFFFF" fill-opacity="1.000000" fill-rule="nonzero"/>
		<path id="Vector" d="M17.72 9.4C17.8 9.17 17.72 9 17.32 9L16.01 9C15.68 9 15.52 9.14 15.44 9.31C15.44 9.31 14.77 10.68 13.83 11.57C13.52 11.83 13.38 11.91 13.21 11.91C13.13 11.91 13 11.83 13 11.59L13 9.4C13 9.12 12.91 9 12.63 9L10.57 9C10.36 9 10.24 9.13 10.24 9.25C10.24 9.52 10.71 9.58 10.76 10.33L10.76 11.95C10.76 12.31 10.68 12.38 10.51 12.38C10.07 12.38 8.99 11 8.34 9.42C8.22 9.12 8.09 9 7.76 9L6.45 9C6.07 9 6 9.14 6 9.31C6 9.6 6.44 11.05 8.07 12.97C9.15 14.28 10.68 15 12.07 15C12.91 15 13.01 14.84 13.01 14.57L13.01 13.57C13.01 13.26 13.09 13.2 13.35 13.2C13.55 13.2 13.88 13.28 14.66 13.91C15.55 14.66 15.7 15 16.2 15L17.51 15C17.88 15 18.07 14.84 17.96 14.53C17.85 14.22 17.42 13.76 16.86 13.23C16.55 12.93 16.09 12.6 15.95 12.43C15.76 12.22 15.81 12.13 15.95 11.94C15.95 11.94 17.55 10.05 17.72 9.4L17.72 9.4Z" fill="#FFFFFF" fill-opacity="1.000000" fill-rule="evenodd"/>
	</g>
</svg>
